<svg id="svg" xmlns="http://www.w3.org/2000/svg" xmlns:xlink="http://www.w3.org/1999/xlink" width="400" height="263.9240506329114" viewBox="0, 0, 400,263.9240506329114"><g id="svgg"><path id="path0" d="M69.967 102.690 C 67.112 111.855,68.605 124.474,73.027 128.548 C 74.460 129.869,76.986 132.208,78.639 133.746 L 81.646 136.542 81.646 149.258 L 81.646 161.974 76.424 162.187 C 73.552 162.305,76.044 162.401,81.962 162.402 C 87.880 162.403,90.514 162.306,87.816 162.188 L 82.911 161.972 82.911 149.076 L 82.911 136.180 86.168 133.438 C 96.495 124.744,97.739 120.316,94.537 103.639 L 94.203 101.899 82.208 101.899 C 73.166 101.899,70.153 102.093,69.967 102.690 M93.277 103.058 C 93.414 103.291,93.728 104.976,93.974 106.804 L 94.423 110.127 82.338 110.127 L 70.253 110.127 70.260 108.703 C 70.264 107.919,70.445 106.201,70.663 104.884 L 71.058 102.490 82.043 102.562 C 88.084 102.602,93.139 102.825,93.277 103.058 M279.345 109.442 C 276.446 111.210,274.536 114.015,269.649 123.677 C 266.225 130.448,264.614 132.917,262.227 135.057 C 255.628 140.971,251.602 141.307,254.458 135.705 C 255.339 133.978,255.486 133.104,254.996 132.513 C 254.507 131.924,254.597 131.305,255.325 130.266 C 257.148 127.663,256.050 125.368,253.458 126.362 C 252.120 126.876,250.491 130.201,250.918 131.547 C 251.468 133.278,244.760 139.241,242.264 139.241 C 240.880 139.241,240.795 137.074,242.089 134.810 C 243.509 132.325,243.247 131.974,239.820 131.780 C 236.813 131.610,236.444 131.761,234.079 134.127 C 229.433 138.773,232.163 141.944,237.141 137.683 C 240.016 135.223,240.850 134.899,240.243 136.482 C 238.187 141.839,244.005 140.686,250.635 134.422 C 253.621 131.600,255.163 132.304,253.530 135.745 C 250.750 141.605,255.817 141.926,262.061 136.285 L 264.683 133.916 263.613 136.420 C 263.025 137.797,262.396 139.280,262.217 139.715 C 262.037 140.150,262.205 140.506,262.591 140.506 C 262.976 140.506,263.291 140.278,263.291 140.000 C 263.291 137.779,272.869 129.612,273.767 131.066 C 274.316 131.955,271.249 135.139,268.913 136.107 C 266.707 137.020,266.667 137.358,268.553 139.130 C 271.365 141.771,276.514 140.586,281.147 136.233 L 282.863 134.620 282.490 136.919 C 281.806 141.129,285.713 140.666,290.258 135.999 L 292.722 133.469 293.038 136.780 C 293.462 141.221,294.427 141.318,298.144 137.295 C 299.848 135.452,301.412 134.112,301.618 134.319 C 301.825 134.525,302.837 134.453,303.867 134.157 C 305.729 133.623,305.737 133.633,305.330 135.804 C 304.287 141.361,310.596 141.233,316.614 135.577 L 318.354 133.940 318.354 136.513 C 318.354 141.657,321.578 141.685,326.968 136.588 C 328.844 134.813,330.380 133.067,330.380 132.709 C 330.380 132.350,328.787 133.663,326.841 135.625 C 322.928 139.569,321.314 140.384,319.841 139.161 C 317.339 137.084,322.815 123.463,326.196 123.355 C 327.279 123.320,328.877 123.054,329.747 122.764 C 330.784 122.417,330.185 122.358,328.006 122.592 C 324.158 123.004,324.193 123.078,326.276 118.966 C 327.153 117.237,327.639 115.823,327.358 115.823 C 327.076 115.823,326.078 117.389,325.139 119.304 C 323.469 122.708,323.372 122.785,320.735 122.795 C 319.252 122.800,317.611 123.077,317.089 123.411 C 316.453 123.818,317.236 123.890,319.462 123.630 C 323.397 123.170,323.416 123.235,320.894 128.568 C 317.710 135.302,309.567 141.033,306.639 138.602 C 305.351 137.534,305.455 136.709,306.877 136.709 C 308.530 136.709,311.392 134.316,311.392 132.933 C 311.392 131.152,309.665 130.899,306.951 132.284 C 302.660 134.473,301.361 134.080,301.741 130.707 C 302.003 128.386,301.856 127.792,300.932 127.437 C 299.396 126.848,297.232 129.506,297.794 131.293 C 298.952 134.977,298.891 135.526,297.115 137.381 C 294.216 140.406,293.420 139.911,293.894 135.378 L 294.298 131.515 290.519 135.014 C 284.623 140.472,281.740 140.591,283.764 135.293 C 285.341 131.164,285.099 131.091,281.487 134.606 C 276.197 139.754,271.715 141.271,269.388 138.701 C 268.380 137.587,268.456 137.442,270.898 135.827 C 273.889 133.847,275.315 131.391,274.149 130.225 C 273.126 129.202,269.368 131.236,267.155 134.010 C 264.946 136.778,264.251 136.625,265.744 133.699 C 266.411 132.392,268.197 130.424,269.712 129.326 C 273.901 126.293,280.852 119.284,282.944 115.986 C 286.612 110.202,284.474 106.315,279.345 109.442 M284.175 111.573 C 284.170 114.447,275.844 124.175,269.762 128.412 L 267.689 129.856 269.320 126.162 C 274.441 114.560,279.934 107.900,283.020 109.552 C 283.656 109.892,284.176 110.802,284.175 111.573 M194.549 114.048 C 190.794 117.599,186.604 123.520,183.834 129.188 C 181.096 134.791,172.544 139.146,170.988 135.730 C 169.970 133.496,170.070 132.278,171.270 132.278 C 171.914 132.278,172.154 132.627,171.923 133.228 C 171.723 133.750,171.854 134.177,172.216 134.177 C 173.100 134.177,172.664 131.493,171.729 131.185 C 171.322 131.051,169.132 132.625,166.862 134.682 C 160.074 140.834,156.086 141.527,158.519 136.131 C 159.144 134.746,159.478 133.152,159.262 132.589 C 159.046 132.026,159.321 130.694,159.872 129.628 C 161.314 126.838,159.816 125.178,157.326 126.809 C 155.736 127.851,154.523 130.684,155.325 131.485 C 155.714 131.875,148.554 135.443,147.382 135.443 C 147.082 135.443,146.835 134.918,146.835 134.275 C 146.835 130.794,143.481 130.290,139.052 133.106 C 135.413 135.420,130.380 137.597,130.380 136.858 C 130.380 136.597,130.634 135.498,130.944 134.416 C 132.201 130.033,128.977 130.005,124.229 134.357 C 121.165 137.165,120.981 136.960,122.559 132.496 C 122.846 131.684,122.765 131.522,122.296 131.962 C 121.924 132.310,121.072 134.161,120.402 136.076 C 119.732 137.991,117.455 142.186,115.341 145.400 C 110.750 152.381,109.561 155.401,110.883 156.724 C 112.371 158.212,114.374 155.340,117.415 147.361 C 120.285 139.831,122.458 136.605,126.760 133.488 C 129.847 131.252,130.380 131.203,130.380 133.158 C 130.380 135.924,128.085 137.697,124.209 137.928 C 123.054 137.996,123.230 140.506,124.389 140.506 C 124.924 140.506,126.007 140.083,126.797 139.566 C 127.586 139.048,129.911 138.048,131.962 137.342 C 134.013 136.636,136.319 135.648,137.086 135.145 C 138.451 134.251,138.473 134.281,138.159 136.623 C 137.537 141.263,140.703 142.236,144.620 138.609 C 149.249 134.323,159.855 130.879,158.503 134.101 C 156.791 138.179,156.732 138.517,157.553 139.506 C 159.098 141.368,162.601 139.897,167.436 135.355 L 169.365 133.543 170.173 135.777 C 170.922 137.848,170.874 138.099,169.510 139.214 C 168.376 140.140,168.209 140.591,168.784 141.176 C 169.362 141.764,169.895 141.541,171.150 140.187 C 172.502 138.728,180.291 134.177,181.436 134.177 C 181.627 134.177,181.597 134.919,181.369 135.827 C 179.968 141.406,184.985 141.640,191.577 136.302 L 194.229 134.153 194.108 136.855 C 193.929 140.863,196.934 140.631,201.436 136.290 C 203.328 134.466,204.421 133.740,204.140 134.494 C 202.638 138.521,202.422 139.342,202.770 139.690 C 202.982 139.902,204.804 138.502,206.820 136.579 C 212.621 131.046,214.677 130.908,213.336 136.141 C 212.366 139.923,212.985 141.139,215.331 140.066 C 217.119 139.248,225.364 132.748,225.033 132.417 C 224.900 132.284,223.195 133.476,221.244 135.066 C 214.984 140.164,212.948 140.746,213.982 137.140 C 215.983 130.163,212.809 129.692,206.171 135.982 C 203.541 138.474,203.358 138.352,204.747 135.029 C 206.307 131.295,205.876 131.282,202.036 134.944 C 196.342 140.375,193.106 140.624,195.168 135.472 C 196.782 131.437,196.474 131.374,192.264 134.877 C 185.824 140.236,182.278 140.894,182.278 136.728 C 182.278 133.276,183.354 131.813,187.798 129.217 C 193.047 126.152,198.731 120.816,200.553 117.245 C 204.135 110.224,200.589 108.335,194.549 114.048 M94.553 112.394 C 96.286 116.910,93.721 126.426,90.137 128.774 C 89.139 129.428,86.978 131.220,85.336 132.757 L 82.349 135.551 77.409 131.288 C 71.199 125.930,69.640 123.010,69.628 116.719 C 69.624 114.254,69.810 112.046,70.042 111.814 C 71.051 110.806,94.153 111.352,94.553 112.394 M201.266 112.775 C 201.266 116.752,195.474 123.687,188.449 128.121 C 184.128 130.849,183.925 130.297,187.184 124.669 C 191.981 116.382,201.266 108.540,201.266 112.775 M197.759 126.624 C 197.529 126.996,197.494 127.451,197.679 127.637 C 198.133 128.090,199.367 127.292,199.367 126.545 C 199.367 125.736,198.274 125.790,197.759 126.624 M286.366 126.624 C 286.137 126.996,286.101 127.451,286.287 127.637 C 286.740 128.090,287.975 127.292,287.975 126.545 C 287.975 125.736,286.882 125.790,286.366 126.624 M254.645 129.587 C 253.115 131.637,251.494 131.906,251.776 130.063 C 252.047 128.300,254.441 126.340,255.289 127.188 C 255.743 127.642,255.543 128.384,254.645 129.587 M159.494 128.383 C 159.494 130.073,157.135 132.071,156.220 131.157 C 155.693 130.629,155.782 130.026,156.566 128.830 C 157.798 126.951,159.494 126.692,159.494 128.383 M301.256 129.905 C 301.243 131.788,300.316 133.182,299.438 132.639 C 298.671 132.165,298.477 129.582,299.156 128.903 C 300.072 127.987,301.265 128.557,301.256 129.905 M142.050 133.789 C 141.782 134.856,142.068 135.669,143.022 136.558 C 144.653 138.078,143.444 139.873,140.790 139.873 C 138.027 139.873,138.070 136.071,140.864 133.277 C 142.233 131.908,142.494 132.021,142.050 133.789 M145.890 132.917 C 146.581 134.036,145.529 136.076,144.261 136.076 C 143.390 136.076,143.038 135.636,143.038 134.546 C 143.038 132.673,145.034 131.533,145.890 132.917 M240.201 132.929 C 240.604 133.582,237.655 136.688,234.936 138.473 C 232.742 139.913,231.824 138.623,233.284 136.151 C 234.920 133.382,239.238 131.371,240.201 132.929 M310.759 133.155 C 310.759 134.483,307.616 136.350,306.783 135.517 C 306.302 135.036,306.442 134.469,307.265 133.559 C 308.588 132.097,310.759 131.846,310.759 133.155 M115.798 149.122 C 113.442 155.122,112.301 156.858,111.342 155.898 C 110.626 155.183,113.391 148.995,116.006 145.458 C 117.998 142.763,117.948 143.647,115.798 149.122 " stroke="none" fill="#000000" fill-rule="evenodd"></path></g></svg>